# AST/ASF file generated using VICON BodyLanguage
# -----------------------------------------------
:version 1.10
:name VICON
:units
  mass 1.0
  length 0.45
  angle deg
:documentation
   .ast/.asf automatically generated from VICON data using
   VICON BodyBuilder and BodyLanguage model FoxedUp or BRILLIANT.MOD
:root
   order TX TY TZ RX RY RZ
   axis XYZ
   position 0 0 0  
   orientation 0 0 0 
:bonedata
  begin
     id 1 
     name lhipjoint
     direction 0.567725 -0.736092 0.368589 
     length 2.42353 
     axis 0 0 0  XYZ
  end
  begin
     id 2 
     name lfemur
     direction 0.34202 -0.939693 0  
     length 7.24894  
     axis 0 0 20  XYZ
    dof rx ry rz
    limits (-160.0 20.0)
           (-70.0 70.0)
           (-60.0 70.0)
  end
  begin
     id 3 
     name ltibia
     direction 0.34202 -0.939693 0   
     length 7.6997   
     axis 0 0 20   XYZ
    dof rx
    limits (-10.0 170.0)
  end
  begin
     id 4 
     name lfoot
     direction 0.100767 -0.276854 0.955614   
     length 2.37556   
     axis -90 7.62852e-016 20   XYZ
    dof rx rz
    limits (-45.0 90.0)
           (-70.0 20.0)
  end
  begin
     id 5 
     name ltoes
     direction 1.53592e-011 -4.21894e-011 1   
     length 1.18363   
     axis -90 7.62852e-016 20   XYZ
    dof rx
    limits (-90.0 20.0)
  end
  begin
     id 6 
     name rhipjoint
     direction -0.556459 -0.742938 0.372017   
     length 2.4012  
     axis 0 0 0  XYZ 
  end
  begin
     id 7 
     name rfemur
     direction -0.34202 -0.939693 0   
     length 7.5119   
     axis 0 0 -20   XYZ
    dof rx ry rz
    limits (-160.0 20.0)
           (-70.0 70.0)
           (-70.0 60.0)
  end
  begin
     id 8 
     name rtibia
     direction -0.34202 -0.939693 0   
     length 7.50155   
     axis 0 0 -20   XYZ
    dof rx
    limits (-10.0 170.0)
 end
 begin
     id 9 
     name rfoot
     direction -0.118427 -0.325376 0.938139   
     length 2.32487  
     axis -90 -7.62852e-016 -20   XYZ
    dof rx rz
    limits (-45.0 90.0)
           (-20.0 70.0)
  end
  begin
     id 10 
     name rtoes
     direction -1.53525e-011 -4.21868e-011 1   
     length 1.15233   
     axis -90 -7.62852e-016 -20   XYZ
    dof rx
    limits (-90.0 20.0)
  end
  begin
     id 11 
     name lowerback
     direction 0.0287568 0.999577 -0.00434502   
     length 2.15243   
     axis 0 0 0   XYZ
    dof rx ry rz
    limits (-20.0 45.0)
           (-30.0 30.0)
           (-30.0 30.0)
  end
  begin
     id 12 
     name upperback
     direction 0.0294009 0.99956 0.00404628   
     length 2.15427   
     axis 0 0 0   XYZ
    dof rx ry rz
    limits (-20.0 45.0)
           (-30.0 30.0)
           (-30.0 30.0)
  end
  begin
     id 13 
     name thorax
     direction 0.0151014 0.999868 0.0059419   
     length 2.14898   
     axis 0 0 0   XYZ
    dof rx ry rz
    limits (-20.0 45.0)
           (-30.0 30.0)
           (-30.0 30.0)
  end
  begin
     id 14 
     name lowerneck
     direction -0.0249197 0.989906 0.139515   
     length 1.6861   
     axis 0 0 0   XYZ
    dof rx ry rz
    limits (-20.0 45.0)
           (-30.0 30.0)
           (-30.0 30.0)
  end
  begin
     id 15 
     name upperneck
     direction 0.0438463 0.988795 -0.142693   
     length 1.71276   
     axis 0 0 0   XYZ
    dof rx ry rz
    limits (-20.0 45.0)
           (-30.0 30.0)
           (-30.0 30.0)
  end
  begin
     id 16
     name head
     direction 0.0148499 0.997845 -0.0639186  
     length 1.7209  
     axis 0 0 0   XYZ
    dof rx ry rz
    limits (-20.0 45.0)
           (-30.0 30.0)
           (-30.0 30.0)
  end
  begin
     id 17 
     name lclavicle
     direction 0.940298 0.323464 -0.105876  
     length 3.9048  
     axis 0 0 0   XYZ
    dof ry rz
    limits (-20.0 10.0)
           (0.0 20.0)
  end
  begin
     id 18 
     name lhumerus
     direction 1 -4.48954e-011 -4.9675e-028   
     length 4.6851   
     axis 180 -30 -90   XYZ
    dof rx ry rz
    limits (-60.0 90.0)
           (-90.0 90.0)
           (-90.0 90.0)
  end
  begin
     id 19
     name lradius
     direction 1 -4.48992e-011 -1.03359e-026   
     length 3.39626   
     axis 180 -30 -90   XYZ
    dof rx
    limits (-10.0 170.0)
  end
  begin
     id 20
     name lwrist
     direction 1 -4.48906e-011 -1.67336e-026   
     length 1.69813   
     axis 9.90442e-015 90 90   XYZ
    dof ry
    limits (-180.0 0.0)
 end
  begin
     id 21 
     name lhand
     direction 1 -4.49006e-011 -3.34673e-026   
     length 0.486078   
     axis 2.1355e-014 90 90   XYZ
    dof rx rz
    limits (-90.0 90.0)
           (-45.0 45.0)
  end
  begin
     id 22 
     name lfingers
     direction 1 -4.48992e-011 -6.69345e-026   
     length 0.391889   
     axis 4.27099e-014 90 90   XYZ
    dof rx
    limits (0.0 90.0)
  end
  begin
     id 23
     name lthumb
     direction 0.707107 -6.34926e-011 0.707107   
     length 0.562676   
     axis -90 45 2.85299e-015   XYZ
    dof rx rz
    limits (-45.0 45.0)
           (-45.0 45.0)
  end
  begin
     id 24 
     name rclavicle
     direction -0.882459 0.414895 -0.221648   
     length 3.44646  
     axis 0 0 0   XYZ 
    dof ry rz
    limits (-10.0 20.0)
           (-20.0 0.0)
  end
  begin
     id 25 
     name rhumerus
     direction -1 -4.48962e-011 -2.37984e-027  
     length 5.55576   
     axis 180 30 90   XYZ
    dof rx ry rz
    limits (-90.0 60.0)
           (-90.0 90.0)
           (-90.0 90.0)
  end
  begin
     id 26 
     name rradius
     direction -1 -4.48982e-011 -6.86791e-027   
     length 3.32774   
     axis 180 30 90   XYZ
    dof rx
    limits (-10.0 170.0)
  end
  begin
     id 27 
     name rwrist
     direction -1 -4.48961e-011 -1.67336e-026   
     length 1.66387   
     axis 9.90442e-015 -90 -90   XYZ
    dof ry
    limits (-180.0 0.0)
  end
  begin
     id 28
     name rhand
     direction -1 -4.4897e-011 -3.34673e-026   
     length 0.507628   
     axis 2.1355e-014 -90 -90   XYZ
    dof rx rz
    limits (-90.0 90.0)
           (-45.0 45.0)
  end
  begin
     id 29
     name rfingers
     direction -1 -4.48854e-011 -6.69345e-026   
     length 0.409263   
     axis 4.27099e-014 -90 -90   XYZ
    dof rx
    limits (0.0 90.0)
  end
  begin
     id 30
     name rthumb
     direction -0.707107 -6.34913e-011 0.707107   
     length 0.587622   
     axis -90 -45 -2.85299e-015   XYZ
    dof rx rz
    limits (-45.0 45.0)
           (-45.0 45.0)
  end
:hierarchy
  begin
    root lhipjoint rhipjoint lowerback
    lhipjoint lfemur
    lfemur ltibia
    ltibia lfoot
    lfoot ltoes
    rhipjoint rfemur
    rfemur rtibia
    rtibia rfoot
    rfoot rtoes
    lowerback upperback
    upperback thorax
    thorax lowerneck lclavicle rclavicle
    lowerneck upperneck
    upperneck head
    lclavicle lhumerus
    lhumerus lradius
    lradius lwrist
    lwrist lhand lthumb
    lhand lfingers
    rclavicle rhumerus
    rhumerus rradius
    rradius rwrist
    rwrist rhand rthumb
    rhand rfingers
  end

#!OML:ASF E:\motion texture\Top Level 1\Subject 1\Session 1\male.ASF
:FULLY-SPECIFIED
:DEGREES
40
root 44.3028 17.5346 4.53012 85.3303 -79.705 -77.1684
lowerback -2.64052 1.1607 6.02979
upperback -1.31515 1.29107 3.73872
thorax 0.176862 0.587184 0.504882
lowerneck -20.7684 -0.725292 -6.0789
upperneck 17.9347 -0.444651 5.7692
head 9.07503 0.00660722 2.9294
rclavicle 7.237e-015 3.17062e-014
rhumerus -24.2277 9.70251 -87.2717
rradius 46.8812
rwrist 15.6753
rhand -16.7367 -23.0647
rfingers 7.12502
rthumb 9.48937 -52.8311
lclavicle 7.237e-015 3.17062e-014
lhumerus -24.0923 6.2245 92.4507
lradius 37.968
lwrist -16.3936
lhand -10.1487 26.1421
lfingers 7.12502
lthumb 15.8404 55.5141
rfemur -9.35375 -0.909683 34.4528
rtibia 19.7039
rfoot -17.1488 -11.3159
rtoes 14.7683
lfemur -26.534 2.40815 -6.13225
ltibia 42.082
lfoot -16.557 4.65922
ltoes -9.72746
41
root 44.2518 17.5313 4.52155 86.0722 -79.6587 -77.8877
lowerback -2.57187 1.21305 6.14067
upperback -1.29176 1.36428 3.68927
thorax 0.168709 0.623727 0.393617
lowerneck -20.7559 -0.722034 -6.09307
upperneck 17.83 -0.435753 5.78647
head 9.03614 0.012689 2.93686
rclavicle -9.00743e-015 6.38596e-014
rhumerus -23.8263 10.3846 -87.4314
rradius 47.6848
rwrist 15.899
rhand -16.9084 -22.9102
rfingers 7.12502
rthumb 9.32368 -52.684
lclavicle -9.00743e-015 6.38596e-014
lhumerus -23.9116 5.48042 92.7199
lradius 38.8827
lwrist -15.7306
lhand -10.0385 26.2083
lfingers 7.12502
lthumb 15.9465 55.5719
rfemur -9.11273 -0.803964 34.5722
rtibia 19.5605
rfoot -17.184 -11.2856
rtoes 14.9696
lfemur -27.2826 2.67469 -6.0198
ltibia 42.6655
lfoot -16.4389 4.74191
ltoes -9.86898
42
root 44.1994 17.5282 4.5134 86.8218 -79.6192 -78.6071
lowerback -2.50696 1.26804 6.24461
upperback -1.27263 1.4414 3.63405
thorax 0.158791 0.662222 0.280344
lowerneck -20.7447 -0.723714 -6.11247
upperneck 17.7251 -0.433409 5.81012
head 8.9979 0.0160565 2.94653
rclavicle 8.81175e-015 6.60959e-015
rhumerus -23.4179 11.0546 -87.5759
rradius 48.4947
rwrist 16.1215
rhand -17.0868 -22.7419
rfingers 7.12502
rthumb 9.15156 -52.5233
lclavicle 8.81175e-015 6.60959e-015
lhumerus -23.7357 4.75341 92.97
lradius 39.7981
lwrist -15.0966
lhand -9.93259 26.2765
lfingers 7.12502
lthumb 16.0486 55.6319
rfemur -8.86891 -0.68841 34.6819
rtibia 19.4075
rfoot -17.2216 -11.2663
rtoes 15.1651
lfemur -28.0194 2.92991 -5.9118
ltibia 43.1448
lfoot -16.2894 4.83362
ltoes -10.0102
43
root 44.1453 17.5255 4.50577 87.5865 -79.5868 -79.3336
lowerback -2.44663 1.32614 6.34149
upperback -1.25795 1.52297 3.5731
thorax 0.147443 0.702932 0.165208
lowerneck -20.7326 -0.726728 -6.12918
upperneck 17.6225 -0.433678 5.83274
head 8.96054 0.0182155 2.95508
rclavicle 1.7872e-014 -3.48867e-014
rhumerus -23.0027 11.7122 -87.7041
rradius 49.3099
rwrist 16.3431
rhand -17.2723 -22.5701
rfingers 7.12502
rthumb 8.97263 -52.3593
lclavicle 1.7872e-014 -3.48867e-014
lhumerus -23.5642 4.04271 93.2027
lradius 40.7124
lwrist -14.4913
lhand -9.82985 26.3433
lfingers 7.12502
lthumb 16.1475 55.6907
rfemur -8.62225 -0.564319 34.7812
rtibia 19.2444
rfoot -17.261 -11.2554
rtoes 15.3505
lfemur -28.7403 3.17225 -5.80768
ltibia 43.5138
lfoot -16.1139 4.93319
ltoes -10.1396
44
root 44.0896 17.523 4.49863 88.364 -79.5611 -80.0667
lowerback -2.39038 1.38687 6.43117
upperback -1.24683 1.60831 3.50682
thorax 0.135269 0.745533 0.0486775
lowerneck -20.7164 -0.733284 -6.14253
upperneck 17.515 -0.43864 5.84962
head 8.9211 0.017738 2.96031
rclavicle 3.52066e-015 -3.69615e-015
rhumerus -22.5802 12.3593 -87.8164
rradius 50.1315
rwrist 16.5619
rhand -17.4755 -22.418
rfingers 7.12502
rthumb 8.77655 -52.2156
lclavicle 3.52066e-015 -3.69615e-015
lhumerus -23.3956 3.34936 93.4185
lradius 41.6245
lwrist -13.9148
lhand -9.73329 26.4054
lfingers 7.12502
lthumb 16.2405 55.7452
rfemur -8.37062 -0.432995 34.8704
rtibia 19.0715
rfoot -17.3028 -11.2526
rtoes 15.5246
lfemur -29.4386 3.39922 -5.70498
ltibia 43.7664
lfoot -15.9166 5.03819
ltoes -10.2505
45
root 44.0322 17.5207 4.49205 89.1453 -79.5441 -80.7952
lowerback -2.33994 1.44945 6.51176
upperback -1.24029 1.69634 3.43457
thorax 0.122145 0.789476 -0.0688642
lowerneck -20.7045 -0.741966 -6.1646
upperneck 17.4137 -0.446777 5.87973
head 8.88487 0.0166177 2.97131
rclavicle 5.77951e-015 3.51973e-014
rhumerus -22.1507 12.9951 -87.9125
rradius 50.9591
rwrist 16.7753
rhand -17.6941 -22.2615
rfingers 7.12502
rthumb 8.56555 -52.0678
lclavicle 5.77951e-015 3.51973e-014
lhumerus -23.2299 2.67225 93.6184
lradius 42.5338
lwrist -13.3659
lhand -9.64158 26.4658
lfingers 7.12502
lthumb 16.3288 55.7984
rfemur -8.11738 -0.294146 34.9465
rtibia 18.8912
rfoot -17.3518 -11.2591
rtoes 15.6917
lfemur -30.1146 3.60808 -5.60656
ltibia 43.8985
lfoot -15.7045 5.14448
ltoes -10.3594
46
root 43.9735 17.5184 4.48593 89.8984 -79.5324 -81.4845
lowerback -2.29398 1.51168 6.58503
upperback -1.24017 1.7842 3.35782
thorax 0.10528 0.833199 -0.187027
lowerneck -20.69 -0.755414 -6.18791
upperneck 17.3084 -0.460877 5.90894
head 8.84724 0.0124934 2.9813
rclavicle 1.30452e-016 -5.71506e-016
rhumerus -21.7124 13.6212 -87.9917
rradius 51.7907
rwrist 16.9849
rhand -17.8733 -22.1204
rfingers 7.12502
rthumb 8.39263 -51.9336
lclavicle 1.30452e-016 -5.71506e-016
lhumerus -23.0661 2.01108 93.8035
lradius 43.4394
lwrist -12.8445
lhand -9.55164 26.5193
lfingers 7.12502
lthumb 16.4154 55.8448
rfemur -7.86748 -0.150625 35.014
rtibia 18.7037
rfoot -17.4048 -11.2787
rtoes 15.8404
lfemur -30.7748 3.7946 -5.50749
ltibia 43.9134
lfoot -15.4759 5.2475
ltoes -10.4534
47
root 43.9127 17.5161 4.48037 90.6965 -79.5261 -82.2162
lowerback -2.25138 1.57745 6.6526
upperback -1.24225 1.8769 3.27654
thorax 0.0887077 0.879355 -0.306554
lowerneck -20.6752 -0.76875 -6.20898
upperneck 17.2062 -0.475735 5.93849
head 8.81072 0.00813915 2.99101
rclavicle -1.2393e-014 -2.9271e-014
rhumerus -21.2649 14.2371 -88.0547
rradius 52.6249
rwrist 17.1899
rhand -18.0653 -21.9868
rfingers 7.12502
rthumb 8.20728 -51.8074
lclavicle -1.2393e-014 -2.9271e-014
lhumerus -22.9034 1.36625 93.9742
lradius 44.34
lwrist -12.3494
lhand -9.47022 26.5731
lfingers 7.12502
lthumb 16.4938 55.892
rfemur -7.60906 0.0045486 35.073
rtibia 18.5113
rfoot -17.4656 -11.3037
rtoes 15.9738
lfemur -31.3965 3.96648 -5.40434
ltibia 43.7999
lfoot -15.2318 5.34735
ltoes -10.5196
48
root 43.8501 17.5138 4.47537 91.5025 -79.5258 -82.9497
lowerback -2.21316 1.64406 6.71338
upperback -1.24861 1.97083 3.19078
thorax 0.0706519 0.926068 -0.426882
lowerneck -20.6615 -0.782958 -6.23201
upperneck 17.1075 -0.492242 5.9725
head 8.77579 0.00332078 3.00243
rclavicle 2.79665e-014 6.93758e-014
rhumerus -20.8083 14.8445 -88.1012
rradius 53.4621
rwrist 17.3907
rhand -18.2919 -21.8514
rfingers 7.12502
rthumb 7.98866 -51.6804
lclavicle 2.79665e-014 6.93758e-014
lhumerus -22.7424 0.737117 94.1309
lradius 45.2358
lwrist -11.8786
lhand -9.39234 26.6232
lfingers 7.12502
lthumb 16.5687 55.9359
rfemur -7.34744 0.16504 35.1221
rtibia 18.3135
rfoot -17.5329 -11.3347
rtoes 16.0896
lfemur -31.987 4.11885 -5.29847
ltibia 43.5624
lfoot -14.9686 5.44254
ltoes -10.563
49
root 43.7856 17.5114 4.47094 92.3107 -79.5306 -83.6791
lowerback -2.18016 1.71159 6.76715
upperback -1.25903 2.06599 3.10135
thorax 0.051769 0.973333 -0.547043
lowerneck -20.6471 -0.801527 -6.26168
upperneck 17.0081 -0.514009 6.0125
head 8.74097 -0.00378905 3.01632
rclavicle -2.99419e-015 5.34731e-014
rhumerus -20.3423 15.4412 -88.1296
rradius 54.3008
rwrist 17.5863
rhand -18.516 -21.7061
rfingers 7.12502
rthumb 7.77234 -51.5433
lclavicle -2.99419e-015 5.34731e-014
lhumerus -22.5807 0.121346 94.276
lradius 46.1244
lwrist -11.4314
lhand -9.32223 26.6741
lfingers 7.12502
lthumb 16.6362 55.9811
rfemur -7.08378 0.331087 35.1619
rtibia 18.1124
rfoot -17.6086 -11.3726
rtoes 16.194
lfemur -32.5462 4.2505 -5.18848
ltibia 43.2041
lfoot -14.6891 5.53082
ltoes -10.5743
50
root 43.7193 17.5086 4.46706 93.1203 -79.5401 -84.4042
lowerback -2.15181 1.77929 6.81427
upperback -1.27352 2.16137 3.00835
thorax 0.0316678 1.02064 -0.667143
lowerneck -20.6306 -0.820676 -6.28961
upperneck 16.9091 -0.536891 6.05094
head 8.70602 -0.0115433 3.02922
rclavicle 1.58282e-014 -8.24956e-015
rhumerus -19.8657 16.0278 -88.1403
rradius 55.1395
rwrist 17.7776
rhand -18.7427 -21.5764
rfingers 7.12502
rthumb 7.5535 -51.4215
lclavicle 1.58282e-014 -8.24956e-015
lhumerus -22.4189 -0.480037 94.4095
lradius 47.0061
lwrist -11.0056
lhand -9.25677 26.7202
lfingers 7.12502
lthumb 16.6993 56.022
rfemur -6.81782 0.501126 35.1927
rtibia 17.9084
rfoot -17.6913 -11.4158
rtoes 16.2876
lfemur -33.0733 4.36175 -5.07329
ltibia 42.7285
lfoot -14.3924 5.61174
ltoes -10.5636
51
root 43.6512 17.5056 4.46372 93.9197 -79.5519 -85.1145
lowerback -2.12747 1.84674 6.85664
upperback -1.29156 2.25636 2.91302
thorax 0.0105115 1.06765 -0.787
lowerneck -20.6153 -0.84099 -6.31935
upperneck 16.8143 -0.561823 6.09357
head 8.67292 -0.0199807 3.04368
rclavicle 1.81267e-014 1.2424e-014
rhumerus -19.379 16.6031 -88.1321
rradius 55.9789
rwrist 17.9635
rhand -18.9761 -21.4412
rfingers 7.12502
rthumb 7.32824 -51.2943
lclavicle 1.81267e-014 1.2424e-014
lhumerus -22.2541 -1.06815 94.5329
lradius 47.8767
lwrist -10.6014
lhand -9.20018 26.7673
lfingers 7.12502
lthumb 16.7537 56.0644
rfemur -6.54851 0.674637 35.2178
rtibia 17.7022
rfoot -17.7825 -11.4663
rtoes 16.3651
lfemur -33.5682 4.45148 -4.94901
ltibia 42.1429
lfoot -14.0844 5.68212
ltoes -10.533
52
root 43.5811 17.5021 4.46103 94.7062 -79.5689 -85.8072
lowerback -2.10716 1.91341 6.89261
upperback -1.31329 2.35031 2.81438
thorax -0.0119305 1.11407 -0.906711
lowerneck -20.5997 -0.865491 -6.35648
upperneck 16.719 -0.591601 6.14267
head 8.64003 -0.0305111 3.06096
rclavicle 5.11871e-015 3.08116e-014
rhumerus -18.88 17.1656 -88.1047
rradius 56.8162
rwrist 18.145
rhand -19.2108 -21.3126
rfingers 7.12502
rthumb 7.10165 -51.1734
lclavicle 5.11871e-015 3.08116e-014
lhumerus -22.087 -1.64536 94.6469
lradius 48.7383
lwrist -10.215
lhand -9.1521 26.8187
lfingers 7.12502
lthumb 16.8 56.1119
rfemur -6.2777 0.846424 35.2324
rtibia 17.4968
rfoot -17.8823 -11.5191
rtoes 16.4298
lfemur -34.0314 4.51613 -4.81935
ltibia 41.4541
lfoot -13.7577 5.73968
ltoes -10.4949
53
root 43.5091 17.4981 4.45893 95.4858 -79.5886 -86.4892
lowerback -2.08985 1.97974 6.92378
upperback -1.33864 2.44381 2.71357
thorax -0.0361222 1.16013 -1.02602
lowerneck -20.5821 -0.892189 -6.39387
upperneck 16.6238 -0.624213 6.19085
head 8.60708 -0.0425564 3.07757
rclavicle -1.6201e-014 1.19271e-014
rhumerus -18.3703 17.7137 -88.058
rradius 57.6516
rwrist 18.3218
rhand -19.4364 -21.1842
rfingers 7.12502
rthumb 6.88392 -51.0523
lclavicle -1.6201e-014 1.19271e-014
lhumerus -21.9169 -2.21139 94.7525
lradius 49.5888
lwrist -9.8469
lhand -9.1101 26.8698
lfingers 7.12502
lthumb 16.8405 56.1596
rfemur -6.00461 1.01605 35.2395
rtibia 17.2927
rfoot -17.9911 -11.5735
rtoes 16.4733
lfemur -34.4623 4.55595 -4.6799
ltibia 40.6705
lfoot -13.4243 5.78286
ltoes -10.4254
